<svg width="399" height="309" viewBox="0 0 399 309" fill="none" xmlns="http://www.w3.org/2000/svg">
<g clip-path="url(#clip0_2_134)">
<path d="M40.4754 283.522C42.1402 284.253 43.9276 284.436 45.6654 284.054C47.4033 283.672 49.033 282.737 50.3976 281.34C53.8728 277.698 54.9626 271.7 55.8489 266.144L58.4712 249.711L52.9813 254.431C49.033 257.825 44.996 261.328 42.2624 266.245C39.5289 271.161 38.3364 277.873 40.532 283.192" fill="#A7A7A7"/>
<path d="M41.3233 304.562C40.6323 298.276 39.9213 291.909 40.4072 285.556C40.8377 279.914 42.2165 274.404 45.0233 269.885C46.5131 267.491 48.326 265.44 50.3804 263.824C50.916 263.402 51.409 264.461 50.8757 264.882C47.321 267.686 44.5715 271.828 43.0236 276.71C41.3141 282.138 41.0396 288.056 41.3341 293.823C41.5121 297.31 41.8903 300.775 42.2701 304.235C42.3001 304.392 42.2814 304.557 42.2177 304.696C42.1541 304.836 42.0502 304.941 41.9272 304.989C41.8017 305.031 41.668 305.01 41.555 304.93C41.442 304.85 41.3588 304.717 41.3236 304.561L41.3233 304.562Z" fill="#FAFAFA"/>
<path d="M46.2969 294.476C47.0107 295.831 47.9921 296.934 49.1465 297.678C50.3008 298.422 51.5892 298.782 52.8875 298.724C56.2246 298.526 59.0056 295.62 61.5088 292.859L68.9144 284.695L64.0133 284.402C60.4887 284.192 56.8731 283.994 53.516 285.352C50.1588 286.711 47.0628 289.976 46.449 294.314" fill="#A7A7A7"/>
<path d="M39.37 308.175C42.6967 300.826 46.555 292.658 53.4499 290.047C55.3668 289.324 57.3768 289.064 59.3717 289.283C60.0005 289.351 59.8435 290.561 59.216 290.494C55.872 290.147 52.5345 291.25 49.7653 293.616C47.1004 295.88 45.0255 299.029 43.2696 302.368C42.1938 304.413 41.2303 306.545 40.2668 308.674C39.9589 309.355 39.0585 308.863 39.37 308.175Z" fill="#FAFAFA"/>
<path d="M373.782 292.272C372.814 293.354 371.64 294.107 370.371 294.458C369.103 294.809 367.784 294.747 366.54 294.276C363.355 293.02 361.261 289.322 359.406 285.855L353.917 275.599L358.716 276.88C362.166 277.801 365.702 278.763 368.67 281.148C371.637 283.533 373.962 287.677 373.668 292.068" fill="#A7A7A7"/>
<path d="M377.674 307.726C375.963 299.56 373.904 290.432 367.773 285.708C366.068 284.397 364.177 283.505 362.204 283.08C361.582 282.945 361.486 284.165 362.107 284.3C365.411 285.032 368.412 287.163 370.605 290.334C372.717 293.373 374.079 297.08 375.093 300.868C375.714 303.188 376.21 305.557 376.705 307.923C376.864 308.679 377.835 308.491 377.674 307.726Z" fill="#FAFAFA"/>
<path d="M310.259 188.133H198.096C197.201 188.132 196.342 187.687 195.708 186.896C195.075 186.105 194.719 185.033 194.718 183.915V136.671C194.719 135.553 195.075 134.481 195.708 133.69C196.342 132.899 197.201 132.455 198.096 132.453H310.259C311.155 132.455 312.014 132.899 312.647 133.69C313.28 134.481 313.636 135.553 313.638 136.671V183.915C313.636 185.033 313.28 186.105 312.647 186.896C312.014 187.687 311.155 188.132 310.259 188.133Z" fill="#EFEFFA" fill-opacity="0.666667"/>
<path d="M242.015 145.108H212.285V149.326H242.015V145.108Z" fill="#050505"/>
<path d="M281.205 150.17C282.324 150.17 283.232 149.036 283.232 147.639C283.232 146.241 282.324 145.108 281.205 145.108C280.085 145.108 279.178 146.241 279.178 147.639C279.178 149.036 280.085 150.17 281.205 150.17Z" fill="#050505"/>
<path d="M287.962 150.17C289.081 150.17 289.989 149.036 289.989 147.639C289.989 146.241 289.081 145.108 287.962 145.108C286.842 145.108 285.935 146.241 285.935 147.639C285.935 149.036 286.842 150.17 287.962 150.17Z" fill="#050505"/>
<path d="M294.718 150.17C295.838 150.17 296.745 149.036 296.745 147.639C296.745 146.241 295.838 145.108 294.718 145.108C293.599 145.108 292.691 146.241 292.691 147.639C292.691 149.036 293.599 150.17 294.718 150.17Z" fill="#050505"/>
<path d="M310.259 248.031H198.096C197.201 248.029 196.342 247.584 195.708 246.794C195.075 246.003 194.719 244.931 194.718 243.812V196.569C194.719 195.451 195.075 194.379 195.708 193.588C196.342 192.797 197.201 192.352 198.096 192.351H310.259C311.155 192.352 312.014 192.797 312.647 193.588C313.28 194.379 313.636 195.451 313.638 196.569V243.812C313.636 244.931 313.28 246.003 312.647 246.794C312.014 247.584 311.155 248.029 310.259 248.031Z" fill="#EFEFFA" fill-opacity="0.666667"/>
<path d="M242.015 205.005H212.285V209.224H242.015V205.005Z" fill="#050505"/>
<path d="M281.205 210.067C282.324 210.067 283.232 208.934 283.232 207.536C283.232 206.139 282.324 205.005 281.205 205.005C280.085 205.005 279.178 206.139 279.178 207.536C279.178 208.934 280.085 210.067 281.205 210.067Z" fill="#050505"/>
<path d="M287.962 210.067C289.081 210.067 289.989 208.934 289.989 207.536C289.989 206.139 289.081 205.005 287.962 205.005C286.842 205.005 285.935 206.139 285.935 207.536C285.935 208.934 286.842 210.067 287.962 210.067Z" fill="#050505"/>
<path d="M294.718 210.067C295.838 210.067 296.745 208.934 296.745 207.536C296.745 206.139 295.838 205.005 294.718 205.005C293.599 205.005 292.691 206.139 292.691 207.536C292.691 208.934 293.599 210.067 294.718 210.067Z" fill="#050505"/>
<path d="M310.259 307.928H198.096C197.201 307.927 196.342 307.482 195.708 306.691C195.075 305.901 194.719 304.828 194.718 303.71V256.467C194.719 255.348 195.075 254.276 195.708 253.486C196.342 252.695 197.201 252.25 198.096 252.249H310.259C311.155 252.25 312.014 252.695 312.647 253.486C313.28 254.276 313.636 255.348 313.638 256.467V303.71C313.636 304.828 313.28 305.901 312.647 306.691C312.014 307.482 311.155 307.927 310.259 307.928Z" fill="#EFEFFA" fill-opacity="0.666667"/>
<path d="M242.015 264.903H212.285V269.121H242.015V264.903Z" fill="#050505"/>
<path d="M281.205 269.965C282.324 269.965 283.232 268.832 283.232 267.434C283.232 266.036 282.324 264.903 281.205 264.903C280.085 264.903 279.178 266.036 279.178 267.434C279.178 268.832 280.085 269.965 281.205 269.965Z" fill="#050505"/>
<path d="M287.962 269.965C289.081 269.965 289.989 268.832 289.989 267.434C289.989 266.036 289.081 264.903 287.962 264.903C286.842 264.903 285.935 266.036 285.935 267.434C285.935 268.832 286.842 269.965 287.962 269.965Z" fill="#050505"/>
<path d="M294.718 269.965C295.838 269.965 296.745 268.832 296.745 267.434C296.745 266.036 295.838 264.903 294.718 264.903C293.599 264.903 292.691 266.036 292.691 267.434C292.691 268.832 293.599 269.965 294.718 269.965Z" fill="#050505"/>
<path d="M267.975 86.3207L267.851 86.2063L267.848 86.2035C267.688 86.0552 267.506 85.9476 267.313 85.887C267.119 85.8264 266.919 85.8139 266.721 85.8502C266.524 85.8866 266.335 85.9711 266.164 86.0988C265.993 86.2266 265.844 86.3952 265.725 86.595L240.478 129.036H237.701V128.221C237.701 128.02 237.637 127.828 237.523 127.685C237.409 127.543 237.255 127.463 237.094 127.463H235.437C235.276 127.463 235.121 127.543 235.007 127.685C234.894 127.828 234.83 128.02 234.83 128.221V129.036H233.87V128.221C233.87 128.02 233.806 127.828 233.693 127.685C233.579 127.543 233.424 127.463 233.263 127.463H231.606C231.445 127.463 231.291 127.543 231.177 127.685C231.063 127.828 230.999 128.02 230.999 128.221V129.036H230.043V128.221C230.043 128.02 229.979 127.828 229.865 127.685C229.751 127.543 229.597 127.463 229.436 127.463H227.779C227.618 127.463 227.464 127.543 227.35 127.685C227.236 127.828 227.172 128.02 227.172 128.221V129.036H226.213V128.221C226.213 128.02 226.149 127.828 226.035 127.685C225.921 127.543 225.767 127.463 225.606 127.463H223.949C223.788 127.463 223.633 127.543 223.519 127.685C223.405 127.828 223.342 128.02 223.342 128.221V129.036H222.385V128.221C222.385 128.02 222.322 127.828 222.208 127.685C222.094 127.543 221.939 127.463 221.778 127.463H220.121C220.042 127.463 219.963 127.483 219.889 127.521C219.815 127.559 219.748 127.615 219.692 127.685C219.636 127.756 219.591 127.839 219.56 127.931C219.53 128.023 219.514 128.122 219.514 128.221V129.036H218.555V128.221C218.555 128.02 218.491 127.828 218.377 127.685C218.263 127.543 218.109 127.463 217.948 127.463H216.291C216.13 127.463 215.976 127.543 215.862 127.685C215.748 127.828 215.684 128.02 215.684 128.221V129.036H214.725V128.221C214.725 128.02 214.661 127.828 214.547 127.685C214.433 127.543 214.279 127.463 214.118 127.463H212.461C212.3 127.463 212.145 127.543 212.031 127.685C211.917 127.828 211.854 128.02 211.854 128.221V129.036H210.898V128.221C210.897 128.02 210.834 127.828 210.72 127.685C210.606 127.543 210.451 127.463 210.29 127.463H208.633C208.472 127.463 208.318 127.543 208.204 127.685C208.09 127.828 208.026 128.02 208.026 128.221V129.036H207.067V128.221C207.067 128.02 207.003 127.828 206.889 127.685C206.775 127.543 206.621 127.463 206.46 127.463H204.803C204.642 127.463 204.488 127.543 204.374 127.685C204.26 127.828 204.196 128.02 204.196 128.221V129.036H203.24V128.221C203.24 128.02 203.176 127.828 203.062 127.685C202.948 127.543 202.794 127.463 202.633 127.463H200.976C200.815 127.463 200.66 127.543 200.546 127.685C200.433 127.828 200.369 128.02 200.369 128.221V129.036H199.167C198.967 129.036 198.77 129.085 198.586 129.18C198.402 129.275 198.235 129.415 198.094 129.591C197.953 129.767 197.841 129.976 197.765 130.206C197.688 130.436 197.649 130.682 197.649 130.931V132.738C197.649 132.987 197.688 133.234 197.765 133.464C197.841 133.693 197.953 133.902 198.094 134.078C198.235 134.254 198.402 134.394 198.586 134.489C198.77 134.584 198.967 134.633 199.167 134.633H240.226C240.746 134.633 241.251 134.409 241.654 133.999C242.057 133.59 242.335 133.019 242.44 132.383L242.456 132.397L268.286 88.9754L268.288 88.9716C268.528 88.5681 268.63 88.0622 268.571 87.5651C268.512 87.068 268.298 86.6204 267.975 86.3207Z" fill="#050505"/>
<path d="M108.42 291.834L113.52 295.093L126.014 272.082L118.487 267.273L108.42 291.834Z" fill="#518393"/>
<path d="M107.971 288.924L118.015 295.342L118.016 295.342C119.713 296.427 120.996 298.309 121.582 300.575C122.168 302.841 122.009 305.304 121.141 307.424L121.034 307.684L104.589 297.176L107.971 288.924Z" fill="#050505"/>
<path d="M167.324 300.75H173.053L175.779 273.159H167.323L167.324 300.75Z" fill="#518393"/>
<path d="M165.863 298.414L177.145 298.414H177.146C179.053 298.414 180.882 299.36 182.23 301.043C183.578 302.727 184.336 305.01 184.336 307.391V307.683L165.863 307.684L165.863 298.414Z" fill="#050505"/>
<path d="M140.525 75.6959C140.525 75.6959 136.689 72.026 136.689 80.9903L136.083 110.614L142.847 138.598L146.785 129.522L145.17 109.857L140.525 75.6959Z" fill="#050505"/>
<path d="M181.565 156.721C181.565 156.721 186.014 183.772 180.378 205.972L177.264 291.329L165.846 290.218L161.842 226.895L157.986 195.418L149.978 224.117L123.582 284.848L111.421 272.998C111.421 272.998 124.897 227.09 134.852 217.452L139.845 146.451L181.565 156.721Z" fill="#518393"/>
<path d="M179.454 31.0699C182.903 23.1921 180.584 13.3149 174.275 9.00859C167.965 4.70223 160.054 7.59744 156.605 15.4752C153.156 23.3529 155.475 33.2301 161.785 37.5364C168.094 41.8428 176.005 38.9476 179.454 31.0699Z" fill="#518393"/>
<path d="M167.108 26.7205C168.669 26.974 169.846 24.9802 170.392 23.1371C170.938 21.2941 171.354 19.1484 172.711 18.1528C174.565 16.7926 176.937 18.4286 179.057 17.9798C181.451 17.473 183.008 14.305 183.13 11.2769C183.252 8.24879 182.287 5.33641 181.34 2.54454L181.009 6.0142C181.054 4.83824 180.855 3.66779 180.434 2.61481C180.012 1.56182 179.381 0.661507 178.601 0L179.027 5.09119C178.937 4.38879 178.736 3.71566 178.436 3.11043C178.137 2.5052 177.744 1.9798 177.282 1.56436C176.819 1.14893 176.295 0.851649 175.741 0.689584C175.186 0.527518 174.611 0.503859 174.048 0.619962L174.116 3.65349C171.35 3.24294 168.561 2.83181 165.787 3.14459C163.014 3.45736 160.221 4.55298 158.119 6.83351C154.975 10.2448 153.826 15.862 154.212 21.0406C154.597 26.2192 156.31 31.0842 158.094 35.7837C158.543 36.9661 159.164 38.3004 160.205 38.451C161.141 38.5864 161.996 37.6101 162.287 36.4918C162.511 35.3444 162.503 34.1453 162.262 33.0031C161.999 31.2576 161.667 29.4734 161.915 27.7243C162.162 25.9752 163.17 24.2468 164.582 24.0324C165.994 23.8181 167.439 25.8335 166.76 27.3943L167.108 26.7205Z" fill="#050505"/>
<path d="M182.37 163.955L138.91 160.454L142.181 143.533L181.903 154.62L182.37 163.955Z" fill="#FAFAFA"/>
<path d="M155.569 45.4423L158.294 40.717C158.294 40.717 161.341 42.0098 169.501 47.081L170.078 51.5082L184.242 160.28L158.496 158.893L151.486 158.707L149.191 152.286L146.362 158.571L139.516 158.389L132.549 153.347L139.415 127.127L141.636 103.176L138.203 80.6121C138.203 80.6121 133.884 59.8919 150.52 48.7198L155.569 45.4423Z" fill="#518393"/>
<path d="M213.596 127.783C212.966 127.983 212.308 128.008 211.669 127.856C211.03 127.705 210.425 127.38 209.898 126.905C209.37 126.429 208.932 125.816 208.615 125.106C208.298 124.397 208.109 123.61 208.062 122.8L192.788 117.692L198.933 110.88L212.495 116.775C213.591 116.767 214.65 117.26 215.473 118.162C216.297 119.064 216.826 120.312 216.962 121.668C217.098 123.025 216.83 124.397 216.21 125.524C215.589 126.651 214.659 127.455 213.596 127.783Z" fill="#518393"/>
<path d="M206.755 124.899C206.434 125.118 206.079 125.249 205.715 125.285C205.35 125.322 204.984 125.261 204.639 125.109L179.512 113.202C173.383 110.489 168.251 105.088 165.071 98.0047L154.593 74.667C153.857 73.6415 153.291 72.4449 152.926 71.1458C152.561 69.8466 152.405 68.4703 152.466 67.0957C152.528 65.7211 152.806 64.3751 153.284 63.1347C153.763 61.8944 154.433 60.7841 155.255 59.8673C156.078 58.9505 157.037 58.2452 158.078 57.7919C159.12 57.3385 160.222 57.146 161.323 57.2253C162.424 57.3045 163.501 57.6541 164.494 58.2538C165.487 58.8536 166.375 59.6919 167.107 60.7207L185.244 96.611L208.067 113.318C208.515 113.685 208.861 114.214 209.06 114.834C209.258 115.455 209.3 116.136 209.178 116.787L208.043 122.792C207.921 123.436 207.645 124.018 207.251 124.461C207.1 124.631 206.934 124.778 206.755 124.899Z" fill="#518393"/>
<path d="M400.576 308.881H0.424339C0.311797 308.881 0.203865 308.825 0.124286 308.726C0.0447067 308.627 0 308.492 0 308.351C0 308.211 0.0447067 308.076 0.124286 307.977C0.203865 307.877 0.311797 307.822 0.424339 307.822H400.576C400.688 307.822 400.796 307.877 400.876 307.977C400.955 308.076 401 308.211 401 308.351C401 308.492 400.955 308.627 400.876 308.726C400.796 308.825 400.688 308.881 400.576 308.881Z" fill="#FAFAFA"/>
</g>
<defs>
<clipPath id="clip0_2_134">
<rect width="401" height="309" fill="white"/>
</clipPath>
</defs>
</svg>
